<svg xmlns="http://www.w3.org/2000/svg" viewBox="0 0 512 512" width="512" height="512">
  <rect width="512" height="512" rx="115" fill="#0f1014"/>
  <g transform="translate(18, 0) scale(1.02)">
    <svg viewBox="0 0 475 550" width="476" height="512">
      <path fill="#f2f1ed" d="m221.5 513.3c-1.7-0.2-5.3-1-8-1.7-2.8-0.8-8.2-1.9-12-2.6-3.8-0.7-7.8-1.7-8.7-2.2-1-0.4-5-1.7-9-2.8-8.5-2.2-15.7-4.6-21.3-7-12.5-5.4-25.7-11.8-32-15.5-2.2-1.3-5.2-3.1-6.7-3.9-3.6-2.1-21.3-15.6-26-19.8-9.8-8.9-15.8-15.1-15.8-16.3 0-2.6 1.9-2.6 7.3 0 3 1.4 7.4 3.2 9.8 4 9.3 3 16.4 5.7 17.5 6.6 0.7 0.5 5.2 1.4 10 2 4.9 0.6 10.2 1.4 11.9 1.9 8.8 2.5 19.5 3.2 45.6 2.9 24.1-0.4 27.7-0.6 29.9-2.1 1.3-1 3.6-1.8 5-1.8 1.5 0 6-0.9 10.1-2 4.1-1.1 10.5-2.7 14.2-3.5 3.7-0.8 7.7-2.1 9-2.9 1.2-0.7 3.5-1.7 5.2-2 4.1-0.9 13.4-4.7 16.5-6.6 1.4-0.9 6-3.3 10.3-5.5 17.8-9 21.6-11.1 23.4-12.7 1.1-1 2.4-1.8 3-1.8 0.6 0 2.6-1.2 4.6-2.7 2-1.6 6.8-5 10.8-7.8 4-2.7 14-11.6 22.2-19.7 8.1-8.2 15.1-14.8 15.5-14.8 0.4 0.1 2.5 1.4 4.7 3 2.2 1.6 7.1 4.7 11 7 9.4 5.4 12.7 7.4 23.7 14.4 9.2 5.8 12.8 8.1 21.1 13.3 2.3 1.4 6 3.8 8.2 5.2 7.9 5 8.3 7.3 2.3 13.9-8.1 8.8-31.3 31.7-37.3 36.8-13.4 11.5-36.2 24.7-53 30.9-3.9 1.4-8.4 3.2-10 4-1.6 0.8-7.1 2.4-12.1 3.5-5.1 1.1-10.4 2.4-11.9 3-1.4 0.5-4.3 1-6.3 1-2.1 0-5.3 0.5-7.2 1.1-1.9 0.7-6.9 1.6-11 2.1-8 1-59.5 1.9-64.5 1.1zm-71-107.8c-1.7-0.8-4.8-1.4-7-1.4-2.3-0.1-6.5-0.8-9.5-1.6-3-0.9-7.7-2.1-10.5-2.6-2.7-0.6-6.9-2.1-9.4-3.5-2.5-1.3-5.4-2.4-6.3-2.4-2.1 0-5.1-1.3-10.3-4.4-2.2-1.4-5.6-3.3-7.5-4.4-16.6-9.1-31.7-18.6-40.5-25.4-17.3-13.6-20.9-17.5-22-24.1-0.4-2.3-1.4-5.8-2.2-7.7-1.5-3.5-3.7-16.4-5.3-31-1.3-11.6-1.1-28.8 0.4-36 0.7-3.6 1.7-10.3 2.1-15 0.4-5.1 1.5-9.9 2.6-12 1-1.9 2-5.5 2.2-8 0.3-2.5 1.2-6.5 2.2-9 0.9-2.5 2.3-6.5 3-9 3.7-12.6 11.4-30.5 18-41.5 1.3-2.2 3.1-5.3 4.1-6.9 0.9-1.7 2.3-3.6 3-4.4 0.8-0.7 1.4-1.7 1.4-2.2 0-1.7 17.8-22.6 25.6-30 10.7-10.3 23.1-20.3 33.9-27.4 5-3.3 10.9-7.2 13.2-8.7 2.2-1.5 5.2-3 6.5-3.4 1.2-0.4 3.4-1.5 4.8-2.5 1.4-1 3.6-2.1 5-2.5 1.4-0.4 2.9-1.1 3.5-1.5 1.7-1.4 19.4-8 21.2-8 1 0 3.1-0.7 4.6-1.5 3.7-1.9 21.7-6.2 29.4-7 3.4-0.3 9.2-1.4 13.1-2.5 5-1.4 11.8-2.1 25.3-2.6 22.1-0.7 35.4 0.3 55.4 4.5 23.2 4.9 24.8 5.2 28.7 7.2 2.1 1.1 4.8 1.9 6.1 1.9 1.3 0 6.4 2 11.3 4.5 4.8 2.5 9.2 4.5 9.7 4.5 0.8 0 8.5 4.3 17.1 9.5 5.8 3.6 11 7.2 15.3 10.6 2.3 1.9 5.1 4.2 6.3 5.1 8.9 6.8 27.5 24.7 35.8 34.4 12.2 14.4 13.5 16.4 12.4 18.9-0.6 1.4-2.7 3.3-4.6 4.2-1.9 1-9.4 4.9-16.7 8.6-7.4 3.8-14.5 7.5-15.9 8.3-6.9 3.8-32.3 14.9-37.6 16.3-5.8 1.5-8.5 0.3-14.7-6.6-9.9-11.1-21.3-21.3-28.7-25.6-13.6-8.1-25.4-13.8-31.5-15.4-3.3-0.8-7.1-2.1-8.6-2.8-5.9-3.1-34.2-5.3-46.7-3.6-20.5 2.7-27.4 4.3-39.7 9.3-12.7 5.2-30.6 15.2-38.5 21.6-11.2 9.1-25.4 25.9-33 39.2-3.4 5.9-9 17.6-9 18.6 0 0.7-0.9 3.1-2 5.5-1.1 2.4-2 5.7-2 7.3 0 1.6-0.8 4.3-1.9 6-1 1.7-2.1 5.5-2.4 8.4-0.4 2.9-1.4 6.8-2.3 8.5-4.5 8.8-1.4 51.1 4.7 62.9 1 2 1.9 4.1 1.9 4.7 0 0.5 2.3 5.7 5 11.5 2.8 5.8 5 10.8 5 11.1 0 0.8 12.3 18.4 16 22.8 3.6 4.4 12 12.6 18 17.7 7.5 6.4 11 10.2 10.4 11.2-0.8 1.3-14.7 0.7-17.9-0.7z"/>
    </svg>
  </g>
</svg>